<svg width="96" height="96" xmlns="http://www.w3.org/2000/svg" xmlns:xlink="http://www.w3.org/1999/xlink" overflow="hidden"><defs><clipPath id="clip0"><rect x="464" y="342" width="96" height="96"/></clipPath></defs><g clip-path="url(#clip0)" transform="translate(-464 -342)"><path d="M550.3 386.3C549.3 384.3 548 382.5 546.6 380.8 538.3 371.3 523.2 371 523.2 371L494 371 494 356C489.8 360.1 489.9 359.1 470 379 470.1 379 489.9 399.9 494 404L494 388.6 523.1 388.6C523.1 388.6 537 388.6 537 401.8 537 416.3 513 416 513 416L474 419C474 419 501.5 423.5 527.1 423.2 546 423 558.8 403.2 550.3 386.3Z" fill="#FFFFFF"/></g></svg>